<svg xmlns="http://www.w3.org/2000/svg" width="1280" height="420" viewBox="0 0 1280 420" role="img" aria-labelledby="title desc">
  <title id="title">Agentic Second Brain</title>
  <desc id="desc">A connected local-first knowledge vault for humans and coding agents.</desc>
  <defs>
    <linearGradient id="bg" x1="0" y1="0" x2="1" y2="1">
      <stop offset="0" stop-color="#090b18"/>
      <stop offset="0.52" stop-color="#17113b"/>
      <stop offset="1" stop-color="#082f3a"/>
    </linearGradient>
    <radialGradient id="glow" cx="50%" cy="48%" r="60%">
      <stop offset="0" stop-color="#8b5cf6" stop-opacity="0.34"/>
      <stop offset="1" stop-color="#8b5cf6" stop-opacity="0"/>
    </radialGradient>
    <linearGradient id="line" x1="0" y1="0" x2="1" y2="0">
      <stop offset="0" stop-color="#38bdf8"/>
      <stop offset="0.5" stop-color="#a78bfa"/>
      <stop offset="1" stop-color="#34d399"/>
    </linearGradient>
    <filter id="soft" x="-50%" y="-50%" width="200%" height="200%">
      <feGaussianBlur stdDeviation="18"/>
    </filter>
  </defs>

  <rect width="1280" height="420" rx="28" fill="url(#bg)"/>
  <rect width="1280" height="420" rx="28" fill="url(#glow)"/>
  <circle cx="1090" cy="72" r="120" fill="#22d3ee" opacity="0.08" filter="url(#soft)"/>
  <circle cx="170" cy="370" r="150" fill="#8b5cf6" opacity="0.13" filter="url(#soft)"/>

  <g opacity="0.18" stroke="#c4b5fd" stroke-width="1">
    <path d="M0 82H1280M0 164H1280M0 246H1280M0 328H1280"/>
    <path d="M160 0V420M320 0V420M480 0V420M640 0V420M800 0V420M960 0V420M1120 0V420"/>
  </g>

  <g fill="none" stroke="url(#line)" stroke-width="3" opacity="0.76">
    <path d="M868 124L976 85L1084 142L1008 240L1138 304"/>
    <path d="M868 124L916 250L1008 240L1084 142"/>
    <path d="M916 250L828 316L1008 240"/>
  </g>
  <g>
    <circle cx="868" cy="124" r="14" fill="#38bdf8"/>
    <circle cx="976" cy="85" r="10" fill="#c4b5fd"/>
    <circle cx="1084" cy="142" r="16" fill="#a78bfa"/>
    <circle cx="916" cy="250" r="12" fill="#34d399"/>
    <circle cx="1008" cy="240" r="18" fill="#f0abfc"/>
    <circle cx="828" cy="316" r="9" fill="#67e8f9"/>
    <circle cx="1138" cy="304" r="13" fill="#6ee7b7"/>
  </g>

  <g font-family="Inter, Segoe UI, Arial, sans-serif">
    <text x="84" y="90" fill="#a5f3fc" font-size="17" font-weight="700" letter-spacing="4">LOCAL-FIRST · AGENT-READY</text>
    <text x="80" y="178" fill="#ffffff" font-size="64" font-weight="800" letter-spacing="-2">Agentic Second Brain</text>
    <text x="84" y="228" fill="#d8d7ed" font-size="23">A beautiful Obsidian knowledge system that compounds across agents.</text>

    <g transform="translate(84 282)">
      <rect width="176" height="48" rx="24" fill="#38bdf8" opacity="0.14" stroke="#67e8f9"/>
      <text x="88" y="31" text-anchor="middle" fill="#cffafe" font-size="16" font-weight="700">Markdown durable</text>
      <rect x="190" width="166" height="48" rx="24" fill="#8b5cf6" opacity="0.18" stroke="#c4b5fd"/>
      <text x="273" y="31" text-anchor="middle" fill="#ede9fe" font-size="16" font-weight="700">HTML beautiful</text>
      <rect x="370" width="168" height="48" rx="24" fill="#10b981" opacity="0.14" stroke="#6ee7b7"/>
      <text x="454" y="31" text-anchor="middle" fill="#d1fae5" font-size="16" font-weight="700">Hooks validated</text>
    </g>
  </g>

  <rect x="1.5" y="1.5" width="1277" height="417" rx="26.5" fill="none" stroke="#ffffff" stroke-opacity="0.12" stroke-width="3"/>
</svg>
