<svg xmlns="http://www.w3.org/2000/svg" width="1280" height="720" viewBox="0 0 1280 720" role="img" aria-labelledby="title desc">
  <title id="title">Agentic Second Brain architecture</title>
  <desc id="desc">A visual map from human capture and immutable evidence through reviewed memory, context compression, and agent action.</desc>
  <defs>
    <linearGradient id="bg" x1="0" y1="0" x2="1" y2="1">
      <stop offset="0" stop-color="#0a0d1a"/>
      <stop offset="0.55" stop-color="#16132d"/>
      <stop offset="1" stop-color="#082a32"/>
    </linearGradient>
    <linearGradient id="flow" x1="0" y1="0" x2="1" y2="0">
      <stop offset="0" stop-color="#38bdf8"/>
      <stop offset="0.5" stop-color="#a78bfa"/>
      <stop offset="1" stop-color="#34d399"/>
    </linearGradient>
    <filter id="shadow" x="-20%" y="-20%" width="140%" height="150%">
      <feDropShadow dx="0" dy="12" stdDeviation="14" flood-color="#000000" flood-opacity="0.28"/>
    </filter>
    <marker id="arrow" markerWidth="10" markerHeight="10" refX="8" refY="5" orient="auto">
      <path d="M0 0L10 5L0 10Z" fill="#8b9bb7"/>
    </marker>
  </defs>

  <rect width="1280" height="720" rx="28" fill="url(#bg)"/>
  <g opacity="0.12" stroke="#c4b5fd">
    <path d="M0 120H1280M0 240H1280M0 360H1280M0 480H1280M0 600H1280"/>
    <path d="M160 0V720M320 0V720M480 0V720M640 0V720M800 0V720M960 0V720M1120 0V720"/>
  </g>

  <g font-family="Inter, Segoe UI, Arial, sans-serif">
    <text x="64" y="64" fill="#a5f3fc" font-size="15" font-weight="700" letter-spacing="3">THE COMPOUNDING MEMORY LOOP</text>
    <text x="64" y="108" fill="#ffffff" font-size="34" font-weight="800">From fleeting context to durable knowledge</text>
    <text x="64" y="140" fill="#b8bdd0" font-size="18">Every layer has a clear owner, purpose, and review boundary.</text>

    <g fill="none" stroke="#8b9bb7" stroke-width="3" marker-end="url(#arrow)" opacity="0.78">
      <path d="M244 302H280"/>
      <path d="M464 302H500"/>
      <path d="M684 302H720"/>
      <path d="M904 302H940"/>
      <path d="M1124 302H1160"/>
    </g>

    <g filter="url(#shadow)">
      <g transform="translate(60 205)">
        <rect width="184" height="194" rx="20" fill="#0e2638" stroke="#38bdf8" stroke-width="2"/>
        <circle cx="34" cy="36" r="14" fill="#38bdf8"/>
        <text x="58" y="42" fill="#e0f2fe" font-size="17" font-weight="800">CAPTURE</text>
        <text x="24" y="82" fill="#ffffff" font-size="20" font-weight="750">Human context</text>
        <text x="24" y="115" fill="#bae6fd" font-size="16">00 · Inbox</text>
        <text x="24" y="143" fill="#bae6fd" font-size="16">01 · Daily</text>
        <text x="24" y="171" fill="#7dd3fc" font-size="13">human-first</text>
      </g>

      <g transform="translate(280 205)">
        <rect width="184" height="194" rx="20" fill="#24204a" stroke="#8b5cf6" stroke-width="2"/>
        <circle cx="34" cy="36" r="14" fill="#8b5cf6"/>
        <text x="58" y="42" fill="#ede9fe" font-size="17" font-weight="800">THINK</text>
        <text x="24" y="82" fill="#ffffff" font-size="20" font-weight="750">Active state</text>
        <text x="24" y="115" fill="#ddd6fe" font-size="16">02 · Working</text>
        <text x="24" y="143" fill="#ddd6fe" font-size="16">03 · Projects</text>
        <text x="24" y="171" fill="#c4b5fd" font-size="13">shared + reviewable</text>
      </g>

      <g transform="translate(500 205)">
        <rect width="184" height="194" rx="20" fill="#3a1f34" stroke="#f472b6" stroke-width="2"/>
        <circle cx="34" cy="36" r="14" fill="#f472b6"/>
        <text x="58" y="42" fill="#fce7f3" font-size="17" font-weight="800">GROUND</text>
        <text x="24" y="82" fill="#ffffff" font-size="20" font-weight="750">Evidence</text>
        <text x="24" y="115" fill="#fbcfe8" font-size="16">07 · Sources</text>
        <text x="24" y="143" fill="#f9a8d4" font-size="14">exact captures</text>
        <text x="24" y="171" fill="#f9a8d4" font-size="13">immutable payloads</text>
      </g>

      <g transform="translate(720 205)">
        <rect width="184" height="194" rx="20" fill="#35254a" stroke="#c084fc" stroke-width="2"/>
        <circle cx="34" cy="36" r="14" fill="#c084fc"/>
        <text x="58" y="42" fill="#f3e8ff" font-size="17" font-weight="800">REVIEW</text>
        <text x="24" y="82" fill="#ffffff" font-size="20" font-weight="750">Machine work</text>
        <text x="24" y="115" fill="#e9d5ff" font-size="16">08 · Reports</text>
        <text x="24" y="143" fill="#e9d5ff" font-size="16">links · dreams</text>
        <text x="24" y="171" fill="#d8b4fe" font-size="13">proposal, not truth</text>
      </g>

      <g transform="translate(940 205)">
        <rect width="184" height="194" rx="20" fill="#123c36" stroke="#34d399" stroke-width="2"/>
        <circle cx="34" cy="36" r="14" fill="#34d399"/>
        <text x="58" y="42" fill="#d1fae5" font-size="17" font-weight="800">COMPOUND</text>
        <text x="24" y="82" fill="#ffffff" font-size="20" font-weight="750">Durable memory</text>
        <text x="24" y="115" fill="#a7f3d0" font-size="16">04 · Knowledge</text>
        <text x="24" y="143" fill="#a7f3d0" font-size="16">05 · 06 · Memory</text>
        <text x="24" y="171" fill="#6ee7b7" font-size="13">linked + reusable</text>
      </g>

      <g transform="translate(1160 205)">
        <rect width="60" height="194" rx="20" fill="#163647" stroke="#22d3ee" stroke-width="2"/>
        <circle cx="30" cy="36" r="14" fill="#22d3ee"/>
        <text x="30" y="82" fill="#cffafe" font-size="14" font-weight="800" text-anchor="middle" transform="rotate(90 30 82)">ACT</text>
        <text x="30" y="137" fill="#a5f3fc" font-size="12" text-anchor="middle" transform="rotate(90 30 137)">AGENTS</text>
      </g>
    </g>

    <path d="M1190 418C1190 505 1110 520 1030 520H240C140 520 100 490 100 420" fill="none" stroke="url(#flow)" stroke-width="4" stroke-dasharray="10 9" marker-end="url(#arrow)"/>
    <text x="640" y="548" fill="#d8d7ed" font-size="15" text-anchor="middle">Agents return reviewed outcomes to working memory, never silently to human truth.</text>

    <g transform="translate(60 585)">
      <rect width="1160" height="82" rx="18" fill="#ffffff" opacity="0.055" stroke="#ffffff" stroke-opacity="0.15"/>
      <text x="34" y="32" fill="#ffffff" font-size="15" font-weight="800" letter-spacing="1.8">GOVERNANCE RUNS UNDER EVERY LAYER</text>
      <g fill="#cbd5e1" font-size="15">
        <text x="34" y="61">Human ownership</text>
        <text x="240" y="61">Immutable evidence</text>
        <text x="456" y="61">Provenance + uncertainty</text>
        <text x="720" y="61">No-overwrite automation</text>
        <text x="955" y="61">Validation + Git</text>
      </g>
    </g>
  </g>

  <rect x="1.5" y="1.5" width="1277" height="717" rx="26.5" fill="none" stroke="#ffffff" stroke-opacity="0.12" stroke-width="3"/>
</svg>
